<?xml version="1.0" encoding="utf-8"?>
<!-- Generator: Adobe Illustrator 23.0.3, SVG Export Plug-In . SVG Version: 6.00 Build 0)  -->
<svg version="1.1" id="Layer_1" xmlns="http://www.w3.org/2000/svg" xmlns:xlink="http://www.w3.org/1999/xlink" x="0px" y="0px"
	 viewBox="0 0 1386 486" style="enable-background:new 0 0 1386 486;" xml:space="preserve">
<style type="text/css">
	.st0{fill:#61AD52;}
	.st1{fill:#468E63;}
	.st2{fill:#7DCEA0;}
	.st3{font-family:'Corbel-Bold';}
	.st4{font-size:132.648px;}
	.st5{fill:none;stroke:#1E8449;stroke-width:0.75;stroke-miterlimit:10;}
</style>
<path class="st0" d="M120.19,89.14c34.11,28.14,52.72,66.27,52.1,99.66c-20.35,4.33-43.93,1.68-67.07-7.74
	c-10.57-4.3-21.05-10.02-31.07-17.13c-3.25-2.3-6.45-4.74-9.59-7.33c-34.11-28.14-52.72-66.27-52.09-99.66
	c0.16-0.04,0.34-0.07,0.5-0.1c0.11-0.03,0.22-0.04,0.33-0.07C45.82,50.17,86.38,61.24,120.19,89.14z"/>
<polygon class="st0" points="177.52,30.97 177.52,447.13 159.56,447.13 159.56,14.25 "/>
<g>
	<path class="st0" d="M270.84,252.18c-31.01,31.52-70.62,46.73-103.82,43.2c-2.54-20.65,2.16-43.91,13.57-66.14
		c5.21-10.15,11.82-20.09,19.78-29.46c2.57-3.03,5.29-6.01,8.14-8.91c31.01-31.52,70.62-46.73,103.82-43.19
		c0.02,0.17,0.04,0.34,0.06,0.51c0.02,0.11,0.02,0.22,0.04,0.33C316.16,181.49,301.59,220.93,270.84,252.18z"/>
	<path class="st1" d="M312.39,148.18c-0.17,0.32-0.33,0.64-0.51,0.97c-6.84,13.09-16.01,25.8-27.42,37.39
		c-31.01,31.52-70.62,46.73-103.82,43.2c-0.02-0.17-0.04-0.33-0.06-0.5c5.21-10.15,11.82-20.09,19.78-29.46
		c2.57-3.03,5.29-6.01,8.14-8.91c31.01-31.52,70.62-46.73,103.82-43.19C312.36,147.84,312.38,148.02,312.39,148.18z"/>
	<path class="st2" d="M312.43,148.52c-0.18,0.21-0.36,0.42-0.54,0.63c-2.4,2.82-4.94,5.58-7.6,8.28
		c-31.01,31.52-70.62,46.73-103.82,43.2c-0.04-0.28-0.07-0.56-0.09-0.85c2.57-3.03,5.29-6.01,8.14-8.91
		c31.01-31.52,70.62-46.73,103.82-43.19c0.02,0.17,0.04,0.34,0.06,0.51C312.41,148.3,312.41,148.41,312.43,148.52z"/>
</g>
<text transform="matrix(1 0 0 1 350.7617 202.3054)"><tspan x="0" y="0" class="st0 st3 st4">Gabriela</tspan><tspan x="0" y="159.18" class="st0 st3 st4">BambooMassage</tspan></text>
<line class="st5" x1="1448.5" y1="-1102.5" x2="1448.5" y2="-1143.5"/>
</svg>
