<?xml version="1.0" encoding="utf-8"?>
<!-- Generator: Adobe Illustrator 23.0.3, SVG Export Plug-In . SVG Version: 6.00 Build 0)  -->
<svg version="1.0" id="Layer_1" xmlns="http://www.w3.org/2000/svg" xmlns:xlink="http://www.w3.org/1999/xlink" x="0px" y="0px"
	 viewBox="0 0 858 48" style="enable-background:new 0 0 858 48;" xml:space="preserve">
<style type="text/css">
	.st0{fill:none;stroke:#304530;stroke-width:8;stroke-miterlimit:10;}
</style>
<path class="st0" d="M18,19.86c8.45,1.69,20.8,3.9,35.82,5.66c31.61,3.69,52.76,2.73,84.84,1.89c59.86-1.57,52.26,0.05,128.2-1.89
	c28.51-0.73,42.76-1.09,62.22-1.89c27.5-1.12,32.95-1.73,49.02-1.89c27.48-0.26,32.49,1.32,60.33,1.89
	c13.52,0.27,15.99-0.03,77.3-1.89c40.43-1.23,60.82-1.84,69.76-1.89c20.93-0.11,47.19-0.19,81.07,1.89
	c19.74,1.21,26.38,2.19,54.67,3.77c22.61,1.26,33.92,1.89,45.25,1.89c17.64-0.01,42.78-1.35,73.53-7.54"/>
</svg>
