<?xml version="1.0" encoding="utf-8"?>
<!-- Generator: Adobe Illustrator 23.0.3, SVG Export Plug-In . SVG Version: 6.00 Build 0)  -->
<svg version="1.1" id="Layer_1" xmlns="http://www.w3.org/2000/svg" xmlns:xlink="http://www.w3.org/1999/xlink" x="0px" y="0px"
	 viewBox="0 0 512 512" style="enable-background:new 0 0 512 512;" xml:space="preserve">
<style type="text/css">
	.st0{fill:#746661;}
</style>
<path class="st0" d="M368,328c0,22.1,17.9,40,40,40s40-17.9,40-40s-17.9-40-40-40C385.9,288,368,305.9,368,328z M432,328
	c0,13.3-10.7,24-24,24s-24-10.7-24-24s10.7-24,24-24S432,314.7,432,328z"/>
<path class="st0" d="M435.8,442.5c24.3-31.4,60.2-83,60.2-114.5c-0.1-42.4-30.3-78.7-72-86.5V152l30,7.8c0.7,0.2,1.3,0.2,2,0.2
	c4.4,0,8-3.6,8-8v-48c0-3.7-2.5-6.8-6-7.8l-216-56c-1.3-0.3-2.7-0.3-4,0l-216,56c-3.5,0.9-6,4.1-6,7.8v48c0,2.5,1.1,4.8,3.1,6.3
	c2,1.5,4.5,2,6.9,1.4l30-7.8v288c0,4.4,3.6,8,8,8h297.4c-10.2,4.5-17.4,11-17.4,20c0,19.2,33.2,28,64,28s64-8.8,64-28
	C472,454.2,455.1,446.2,435.8,442.5z M480,328c0,31-47.4,94.2-72,123.7c-24.6-29.5-72-92.7-72-123.7c0-39.8,32.2-72,72-72
	S480,288.2,480,328z M296,256v-32c0-17.7,14.4-32,32.1-32c8.4,0,16.5,3.4,22.5,9.3c6,6,9.3,14.2,9.4,22.7v30.3l-2.4,1.7H296z
	 M32,141.7v-31.5l208-53.9l208,53.9v31.5L242,88.2c-1.3-0.3-2.7-0.3-4,0L32,141.7z M232,432h-40V320h40V432z M288,432h-40V320h40
	V432z M304,432V312c0-4.4-3.6-8-8-8H184c-4.4,0-8,3.6-8,8v120H72V147.8l168-43.6l168,43.6V240c-11,0-21.8,2.1-32,6.1V224
	c0-26.5-21.5-48-48-48s-48,21.5-48,48v32h-8v16h68.2c-13,15.7-20.2,35.6-20.2,56c0,28.2,28.7,72.5,52.2,104H304z M408,480
	c-30.7,0-47-8.8-48-11.8c0.7-2.5,11-8.8,31.7-11.2c5.7,7,9.6,11.5,10.3,12.3c2.9,3.3,8,3.6,11.3,0.7c0.3-0.2,0.5-0.5,0.7-0.7
	c0.7-0.8,4.6-5.3,10.3-12.3c20.7,2.4,31,8.7,31.7,10.9C455,471.2,438.7,480,408,480z"/>
<path class="st0" d="M208,368h16v16h-16V368z"/>
<path class="st0" d="M256,368h16v16h-16V368z"/>
<path class="st0" d="M200,256v-32c0-26.5-21.5-48-48-48s-48,21.5-48,48v32h-8v16h112v-16H200z M184,256h-64v-32
	c0-17.7,14.3-32,32-32s32,14.3,32,32V256z"/>
</svg>
